{"glyphs":{":":{"x_min":0,"x_max":300,"ha":300,"o":"m 157 73 b 131 73 109 52 109 25 b 109 0 131 -22 157 -22 b 184 -22 206 0 206 25 b 206 52 184 73 157 73 z m 157 353 b 131 353 109 332 109 305 b 109 280 131 258 157 258 b 184 258 206 280 206 305 b 206 332 184 353 157 353 z"},"$":{"x_min":0,"x_max":395,"ha":395,"o":"m 173 -33 b 173 -53 189 -62 208 -62 b 222 -62 228 -57 228 -44 l 228 36 b 283 52 328 100 328 158 b 328 227 279 263 228 294 l 228 581 b 238 584 248 586 257 586 b 288 586 299 570 299 543 b 299 510 292 476 268 476 b 262 476 254 469 259 455 b 264 440 281 426 298 426 b 336 426 373 487 373 548 b 373 615 332 659 265 659 b 252 659 240 657 228 655 l 228 713 b 228 732 216 738 197 738 b 178 738 168 735 168 727 b 168 722 173 717 173 714 l 173 635 b 93 595 28 510 28 429 b 28 324 107 280 173 243 l 173 96 b 136 102 125 127 113 127 b 99 127 77 96 77 76 b 77 71 110 37 173 31 z m 104 429 b 104 479 135 523 173 552 l 173 327 b 134 353 104 382 104 429 z m 258 155 b 258 132 249 112 228 102 l 228 208 b 246 193 258 176 258 155 z"},"?":{"x_min":0,"x_max":432,"ha":432,"o":"m 213 73 b 186 73 164 52 164 25 b 164 0 186 -22 213 -22 b 240 -22 261 0 261 25 b 261 52 240 73 213 73 z m 251 139 l 251 178 b 251 192 252 206 263 217 b 321 273 390 346 390 486 b 390 611 327 700 219 700 b 133 700 48 640 48 505 b 48 439 78 355 121 355 b 153 355 177 384 177 400 b 177 405 174 409 168 409 b 166 409 163 407 159 407 b 139 407 124 462 124 505 b 124 596 172 628 219 628 b 249 628 314 614 314 487 b 314 347 232 279 198 250 b 184 237 178 226 176 204 b 175 191 175 169 175 153 b 175 114 251 94 251 139 z"},"<":{"x_min":0,"x_max":400,"ha":400,"o":"m 81 353 b 62 345 53 347 53 319 b 53 302 62 285 80 273 l 303 145 b 304 144 307 143 309 144 b 324 148 341 187 337 203 b 336 206 334 208 332 210 l 145 314 l 324 414 b 327 416 331 421 333 427 b 338 451 321 487 309 490 b 300 493 304 484 296 478 z"},"'":{"x_min":0,"x_max":180,"ha":180,"o":"m 123 662 b 123 676 97 679 79 679 b 61 679 50 675 50 668 b 50 662 57 663 57 651 l 57 478 b 58 456 123 465 123 485 z"},"=":{"x_min":0,"x_max":400,"ha":400,"o":"m 77 280 b 58 280 49 256 49 238 b 49 223 55 210 65 210 l 321 210 b 339 210 352 243 352 264 b 352 275 349 285 342 285 b 339 285 336 280 329 280 z m 77 420 b 58 420 49 396 49 378 b 49 363 55 350 65 350 l 321 350 b 339 350 352 383 352 404 b 352 415 349 425 342 425 b 339 425 336 420 329 420 z"},"a":{"x_min":0,"x_max":354,"ha":354,"o":"m 318 38 b 294 38 284 62 284 84 l 284 249 b 284 273 263 293 230 293 b 216 293 204 286 204 276 b 204 269 208 263 208 244 l 208 90 b 197 62 179 38 152 38 b 117 38 95 68 95 120 b 95 264 184 329 260 329 b 270 329 280 327 289 327 b 299 327 302 333 302 350 b 302 376 283 392 256 392 b 134 392 18 290 18 123 b 18 38 59 -28 137 -28 b 175 -28 203 -10 223 13 b 238 -11 265 -28 300 -28 b 386 -28 426 62 443 128 b 444 132 444 134 444 135 b 444 154 425 176 409 176 b 399 176 389 167 385 146 b 376 102 358 38 318 38 z"},"L":{"x_min":0,"x_max":505,"ha":505,"o":"m 374 -37 b 451 -37 503 35 503 113 b 503 137 483 158 448 158 b 440 158 436 156 436 151 b 436 147 438 142 438 133 b 438 97 422 41 366 41 b 325 41 289 89 246 130 b 243 253 164 342 164 446 b 164 545 227 633 319 633 b 369 633 392 600 392 561 b 392 501 312 428 246 428 b 235 428 230 435 227 435 b 222 435 219 430 219 422 b 219 383 243 365 270 365 b 357 365 471 458 471 575 b 471 653 411 710 322 710 b 179 710 84 578 84 449 b 84 338 142 266 165 180 b 155 183 144 185 133 185 b 73 185 19 140 19 75 b 19 21 57 -28 123 -28 b 174 -28 209 6 228 47 b 269 6 315 -37 374 -37 z m 126 116 b 142 116 157 109 172 98 b 168 69 152 42 125 42 b 102 42 90 60 90 79 b 90 101 106 116 126 116 z"},"3":{"x_min":0,"x_max":387,"ha":387,"o":"m 23 501 b 23 432 56 346 105 346 b 133 346 154 376 154 393 b 154 397 153 399 151 399 b 148 399 146 394 141 394 b 126 394 99 440 99 500 b 99 586 143 626 189 626 b 238 626 279 584 279 486 b 279 362 228 307 167 287 b 164 287 161 288 159 288 b 142 288 139 273 139 263 b 139 236 151 223 167 219 b 192 212 257 188 257 112 b 257 71 228 46 199 46 b 147 46 133 106 133 114 b 133 120 135 121 135 125 b 135 129 128 131 113 131 b 91 131 60 123 60 106 b 60 54 110 -28 195 -28 b 275 -28 334 33 334 116 b 334 193 283 233 246 255 b 303 294 355 359 355 483 b 355 586 310 700 193 700 b 109 700 23 638 23 501 z"},";":{"x_min":0,"x_max":300,"ha":300,"o":"m 157 353 b 131 353 109 332 109 305 b 109 280 131 258 157 258 b 184 258 206 280 206 305 b 206 332 184 353 157 353 z m 158 73 b 132 73 109 52 109 25 b 109 3 125 -15 146 -20 b 132 -39 117 -56 110 -58 b 106 -60 103 -60 103 -65 b 103 -77 115 -96 132 -96 b 157 -96 207 -23 207 14 b 207 54 184 73 158 73 z"},"J":{"x_min":0,"x_max":401,"ha":401,"o":"m 261 -42 l 261 -53 b 169 -80 79 -135 79 -236 b 79 -303 123 -354 191 -354 b 307 -354 332 -226 338 -111 b 351 -110 364 -109 379 -109 b 414 -108 439 -27 392 -30 b 376 -31 358 -32 339 -35 l 339 -5 l 339 658 b 339 682 320 700 299 700 b 181 700 18 630 18 418 b 18 301 77 235 102 219 b 107 215 113 213 119 213 b 144 213 168 245 168 279 b 168 286 166 294 161 294 b 156 294 155 287 150 287 b 137 287 97 338 97 418 b 97 544 171 611 261 622 z m 193 -277 b 173 -277 157 -264 157 -234 b 157 -184 193 -147 259 -127 b 254 -206 238 -277 193 -277 z"},"V":{"x_min":0,"x_max":589,"ha":589,"o":"m 481 530 b 481 206 378 51 348 51 b 344 51 339 52 339 65 l 339 658 b 339 682 320 700 299 700 b 181 700 18 630 18 418 b 18 317 67 243 102 219 b 131 198 174 237 174 279 b 174 286 171 291 166 291 b 161 291 156 287 150 287 b 137 287 97 338 97 418 b 97 544 171 611 261 622 l 261 59 b 261 -7 301 -28 329 -28 b 441 -28 559 197 559 543 b 559 604 555 634 550 658 b 544 687 530 700 497 700 b 483 700 471 693 471 683 b 471 667 481 629 481 530 z"},"\"":{"x_min":0,"x_max":300,"ha":300,"o":"m 123 662 b 123 676 97 679 79 679 b 61 679 50 675 50 668 b 50 662 57 663 57 651 l 57 478 b 58 456 123 465 123 485 z m 243 662 b 243 676 217 679 199 679 b 181 679 170 675 170 668 b 170 662 177 663 177 651 l 177 478 b 178 456 243 465 243 485 z"},"7":{"x_min":0,"x_max":319,"ha":319,"o":"m 172 5 b 172 323 242 477 307 631 b 312 643 316 654 316 663 b 316 681 304 690 292 690 b 275 690 239 682 171 682 b 102 682 65 684 43 685 b 39 686 38 687 35 687 b 24 687 18 669 18 650 b 18 629 21 605 55 605 b 98 605 162 609 225 612 b 165 487 92 262 92 36 b 92 -8 120 -18 143 -18 b 158 -18 172 -12 172 5 z"},"S":{"x_min":0,"x_max":414,"ha":414,"o":"m 202 -36 b 286 -36 351 31 351 112 b 351 279 106 282 106 437 b 106 546 229 634 303 634 b 343 634 358 613 358 579 b 358 513 268 429 214 429 b 197 429 188 439 188 422 b 188 401 209 364 244 364 b 305 364 434 469 434 580 b 434 658 386 709 308 709 b 172 709 28 569 28 437 b 28 233 272 228 272 109 b 272 66 243 39 202 39 b 164 39 147 60 144 63 b 141 69 138 72 133 72 b 118 72 94 37 94 14 b 94 8 117 -36 202 -36 z"},"}":{"x_min":0,"x_max":295,"ha":295,"o":"m 67 781 b 42 781 32 760 32 739 b 32 719 41 700 55 703 b 110 703 145 678 145 628 b 145 549 102 499 102 434 b 102 376 136 334 173 322 b 137 303 102 266 102 211 b 102 142 146 83 146 15 b 146 -46 108 -72 57 -72 b 45 -62 34 -80 33 -101 b 32 -123 40 -148 69 -148 b 130 -148 223 -113 223 14 b 223 86 178 146 178 211 b 178 311 267 263 267 323 b 267 381 178 335 178 434 b 178 490 222 559 222 628 b 222 748 124 781 67 781 z"},"Z":{"x_min":0,"x_max":487,"ha":487,"o":"m 158 -249 b 158 -316 202 -367 270 -367 b 383 -367 416 -249 416 -148 b 416 -140 416 -132 415 -125 b 429 -123 443 -122 458 -122 b 493 -121 518 -40 471 -43 b 451 -44 428 -46 404 -51 b 385 18 346 56 308 73 b 370 125 457 227 457 424 b 457 594 369 700 246 700 b 145 700 28 614 28 428 b 28 267 132 185 178 185 b 209 185 228 211 228 246 b 228 257 226 260 223 260 b 219 260 214 257 207 257 b 177 257 108 306 108 433 b 108 555 175 622 244 622 b 280 622 377 600 377 429 b 377 159 214 97 207 98 b 204 99 201 99 199 99 b 187 99 182 88 182 74 b 182 53 194 26 216 25 b 270 23 311 -10 329 -69 b 241 -97 158 -152 158 -249 z m 340 -147 b 340 -213 319 -290 272 -290 b 252 -290 236 -277 236 -247 b 236 -197 273 -159 340 -139 z"},"x":{"x_min":0,"x_max":407,"ha":407,"o":"m 88 123 b 103 171 119 260 121 304 b 148 258 171 213 192 165 b 164 125 133 85 102 49 b 70 12 59 18 59 5 b 59 -14 88 -28 111 -28 b 129 -28 142 -20 156 2 l 223 97 b 266 6 303 -28 363 -28 b 444 -28 479 62 496 128 b 497 132 497 134 497 135 b 497 154 478 176 462 176 b 452 176 442 167 438 146 b 429 102 412 34 372 34 b 335 34 308 84 270 165 l 383 326 b 386 330 387 335 387 341 b 387 364 365 393 345 393 b 334 393 326 384 317 366 b 300 334 273 286 239 234 b 214 287 194 326 170 365 b 157 386 133 392 117 392 b 75 392 58 379 58 344 b 58 293 42 188 32 151 b 23 117 75 81 88 123 z"},")":{"x_min":0,"x_max":270,"ha":270,"o":"m 33 729 b 35 729 155 591 155 328 b 155 52 26 -79 25 -80 b 15 -84 12 -89 12 -95 b 13 -112 54 -131 73 -131 b 76 -131 79 -131 81 -129 b 87 -123 232 19 232 328 b 232 602 109 781 73 781 b 31 781 10 750 33 729 z"},"&":{"x_min":0,"x_max":422,"ha":422,"o":"m 387 20 b 371 47 357 74 343 101 b 368 156 384 228 384 321 b 384 373 393 368 393 378 b 393 385 380 389 368 389 b 342 389 315 383 307 363 b 303 354 311 335 311 321 b 311 272 307 229 299 191 b 209 382 160 547 153 617 b 189 615 266 614 287 614 b 312 614 328 645 328 668 b 328 681 322 692 309 692 b 306 692 302 691 298 690 l 111 690 b 86 690 72 674 72 651 b 72 644 82 565 122 436 b 95 397 23 282 23 158 b 23 54 76 -28 179 -28 b 218 -28 260 -9 295 28 b 302 14 310 0 318 -14 b 324 -24 333 -28 343 -28 b 368 -28 400 -3 400 11 b 400 16 396 19 387 20 z m 183 46 b 131 46 98 101 98 159 b 98 239 126 302 152 346 b 179 272 214 187 261 94 b 240 63 214 46 183 46 z"},"_":{"x_min":0,"x_max":404,"ha":404,"o":"m 28 -80 b 9 -80 0 -104 0 -122 b 0 -137 6 -160 16 -160 l 373 -160 b 391 -160 404 -127 404 -106 b 404 -95 401 -75 394 -75 b 391 -75 388 -80 381 -80 z"},"v":{"x_min":0,"x_max":325,"ha":325,"o":"m 35 70 b 35 16 56 -28 120 -28 b 238 -28 313 84 313 219 b 313 305 264 392 224 392 b 205 392 183 361 183 343 b 183 337 192 338 197 334 b 210 324 238 303 238 222 b 238 106 182 38 133 38 b 115 38 111 50 111 69 l 111 338 b 111 362 90 382 57 382 b 43 382 31 375 31 365 b 31 358 35 352 35 333 z"},"O":{"x_min":0,"x_max":509,"ha":509,"o":"m 391 340 b 390 153 328 47 245 47 b 174 47 100 127 100 308 b 100 564 223 627 258 647 b 260 646 261 646 263 646 b 272 646 276 656 276 669 b 276 691 263 721 241 721 b 237 721 233 720 230 719 b 222 716 20 638 20 298 b 20 119 96 -28 242 -28 b 359 -28 469 87 469 340 b 469 364 467 391 463 419 b 496 433 519 453 519 478 b 519 505 501 532 487 532 b 482 532 478 528 475 519 b 466 509 457 500 447 494 b 425 564 383 622 310 622 b 256 622 219 579 219 527 b 219 450 286 401 369 401 l 388 401 b 390 380 391 359 391 340 z m 366 470 b 314 470 292 501 292 525 b 292 536 297 550 317 550 b 348 550 368 516 378 470 z"},"(":{"x_min":0,"x_max":270,"ha":270,"o":"m 237 -79 b 235 -79 115 59 115 322 b 115 598 244 729 245 730 b 255 734 258 739 258 745 b 257 762 216 781 197 781 b 194 781 191 781 189 779 b 183 773 38 631 38 322 b 38 48 161 -131 197 -131 b 239 -131 260 -100 237 -79 z"},"C":{"x_min":0,"x_max":488,"ha":488,"o":"m 226 416 b 197 416 195 426 188 426 b 181 426 177 408 177 394 b 177 361 197 346 221 346 b 332 346 486 458 486 581 b 486 668 431 713 359 713 b 160 713 33 471 33 276 b 33 83 119 -41 262 -41 b 383 -41 456 39 459 42 b 483 66 434 137 408 94 b 406 93 354 34 269 34 b 154 34 113 152 113 276 b 113 439 214 640 346 640 b 392 640 407 607 407 584 b 407 499 300 416 226 416 z"},"W":{"x_min":0,"x_max":548,"ha":548,"o":"m 486 586 b 486 636 495 655 521 663 b 524 664 525 665 525 667 b 525 676 489 700 460 700 b 436 700 408 677 408 596 l 408 121 b 408 45 373 45 360 45 b 345 45 313 45 313 121 l 313 626 b 313 650 290 670 257 670 b 243 670 231 663 231 653 b 231 646 235 640 235 621 l 235 131 b 235 45 202 45 187 45 b 174 45 140 45 140 121 l 140 596 b 140 677 112 700 87 700 b 59 700 23 676 23 667 b 23 665 24 664 27 663 b 51 655 62 636 62 586 l 62 131 b 62 14 120 -28 182 -28 b 200 -28 240 -24 268 14 b 299 -24 344 -28 362 -28 b 422 -28 486 14 486 131 z"},"A":{"x_min":0,"x_max":496,"ha":496,"o":"m 240 385 b 362 385 484 468 484 583 b 484 654 436 710 354 710 b 164 710 33 474 33 253 b 33 38 109 -40 218 -40 b 288 -40 348 10 378 73 b 381 -8 379 -34 414 -34 b 436 -34 465 -23 465 -10 b 465 -8 464 -6 462 -3 b 458 29 453 85 453 216 b 453 294 461 353 466 379 b 470 398 451 405 435 405 b 416 405 396 398 394 385 b 374 228 344 38 227 38 b 141 38 113 130 113 255 b 113 412 194 634 349 634 b 387 634 405 606 405 579 b 405 504 317 457 245 457 b 216 457 214 467 207 467 b 200 467 196 449 196 435 b 196 402 216 385 240 385 z"},"f":{"x_min":0,"x_max":268,"ha":268,"o":"m 226 286 b 253 284 251 274 257 274 b 270 274 276 323 276 337 b 276 358 257 365 235 365 b 208 365 157 362 111 358 l 111 641 b 111 665 90 685 57 685 b 43 685 25 681 25 674 b 25 667 35 665 35 636 l 35 352 b 29 352 24 351 21 351 b 5 349 -2 337 -2 327 b -2 311 13 299 29 283 b 31 281 33 278 35 276 l 35 -262 b 35 -336 57 -412 127 -412 b 207 -412 260 -291 260 -124 b 260 41 202 160 111 271 l 111 293 z m 184 -124 b 184 -251 164 -339 135 -339 b 115 -339 111 -294 111 -262 l 111 166 b 159 73 184 -33 184 -124 z"},"Q":{"x_min":0,"x_max":522,"ha":522,"o":"m 456 -118 b 331 -118 111 -5 111 333 b 111 535 193 624 263 624 b 333 624 404 542 404 344 b 404 201 360 70 266 44 b 264 44 263 44 261 44 b 255 44 252 41 252 36 b 252 20 285 -17 302 -17 b 347 -17 482 74 482 344 b 482 599 368 700 265 700 b 162 700 33 593 33 332 b 33 -8 264 -196 425 -196 b 489 -196 520 -101 494 -101 b 486 -101 481 -118 456 -118 z"},"w":{"x_min":0,"x_max":498,"ha":498,"o":"m 210 109 b 210 71 198 38 160 38 b 117 38 111 73 111 109 l 111 338 b 111 362 90 382 57 382 b 43 382 31 375 31 365 b 31 358 35 352 35 333 l 35 110 b 35 56 46 -28 157 -28 b 195 -28 235 -6 248 20 b 262 -6 296 -28 339 -28 b 442 -28 461 47 461 109 l 461 338 b 461 362 440 382 407 382 b 393 382 381 375 381 365 b 381 358 385 352 385 333 l 385 109 b 385 71 373 38 335 38 b 296 38 287 67 286 109 l 286 338 b 286 362 265 382 232 382 b 218 382 206 375 206 365 b 206 358 210 352 210 333 z"},"-":{"x_min":0,"x_max":350,"ha":350,"o":"m 76 303 b 57 303 48 269 48 251 b 48 236 54 223 64 223 l 270 223 b 288 223 301 266 301 287 b 301 298 298 308 291 308 b 288 308 285 303 278 303 z"},"E":{"x_min":0,"x_max":446,"ha":446,"o":"m 423 72 b 425 76 426 81 426 86 b 426 109 405 135 385 135 b 377 135 369 130 364 118 b 351 90 301 36 217 36 b 161 36 119 72 119 123 b 119 202 184 226 226 231 b 238 232 250 261 250 283 b 250 296 245 307 233 307 b 230 307 227 307 224 306 b 180 310 123 365 123 440 b 123 536 209 640 309 640 b 346 640 372 622 372 586 b 372 522 326 452 260 452 b 231 452 229 462 222 462 b 215 462 211 440 211 426 b 211 390 241 378 266 378 b 365 378 451 481 451 585 b 451 658 401 717 309 717 b 163 717 43 568 43 435 b 43 348 86 299 130 272 b 82 247 39 194 39 121 b 39 17 119 -43 215 -43 b 343 -43 406 43 423 72 z"},"s":{"x_min":0,"x_max":319,"ha":319,"o":"m 92 137 b 105 185 115 219 131 258 b 166 222 203 180 203 117 b 203 92 192 69 181 56 b 131 56 40 114 20 114 b -2 114 -29 61 20 14 b 40 -5 88 -28 130 -28 b 171 -28 204 -13 228 8 b 290 12 331 31 362 56 b 385 75 408 113 408 133 b 408 147 389 173 372 173 b 363 173 356 165 349 146 b 338 114 314 84 267 74 b 270 85 272 98 272 110 b 272 205 211 241 164 324 b 165 330 188 363 188 392 b 188 419 176 437 152 437 b 125 437 67 392 67 358 b 67 341 73 326 83 311 b 65 258 44 201 34 157 b 26 123 81 95 92 137 z"},">":{"x_min":0,"x_max":400,"ha":400,"o":"m 319 283 b 338 291 347 315 347 343 b 347 360 338 351 320 363 l 97 491 b 92 494 91 498 87 498 b 73 498 62 457 62 438 b 62 431 65 429 68 426 l 257 322 l 76 222 b 71 219 66 211 66 200 b 66 177 76 150 89 150 b 93 150 96 154 104 158 z"},"l":{"x_min":0,"x_max":220,"ha":220,"o":"m 111 581 b 111 597 115 621 126 621 b 142 621 153 591 153 525 b 153 470 132 338 111 296 z m 253 145 b 244 101 210 38 164 38 b 127 38 111 67 111 107 l 111 165 b 124 177 215 379 215 526 b 215 582 214 687 126 687 b 76 687 35 634 35 559 l 35 104 b 35 25 76 -28 153 -28 b 244 -28 293 73 311 127 b 319 159 265 204 253 145 z"},"8":{"x_min":0,"x_max":380,"ha":380,"o":"m 187 -28 b 261 -28 311 36 311 115 b 311 158 295 195 269 219 b 313 256 345 327 345 440 b 345 681 224 700 187 700 b 111 700 30 632 30 440 b 30 321 63 253 105 218 b 80 193 64 157 64 115 b 64 36 115 -28 187 -28 z m 187 626 b 237 626 269 554 269 440 b 269 322 227 256 187 256 b 148 256 106 315 106 440 b 106 550 139 626 187 626 z m 187 183 b 213 183 237 159 237 115 b 237 77 221 45 188 45 b 157 45 138 77 138 115 b 138 158 162 183 187 183 z"},"\\":{"x_min":0,"x_max":310,"ha":310,"o":"m 69 679 b 66 687 60 704 23 695 b -11 687 -7 676 1 664 l 238 -9 b 248 -33 317 -1 300 25 z"},"e":{"x_min":0,"x_max":297,"ha":297,"o":"m 265 291 b 265 351 231 392 175 392 b 98 392 22 297 22 170 b 22 45 108 -28 199 -28 b 346 -28 386 93 393 154 b 397 189 341 209 332 164 b 320 103 288 38 210 38 b 158 38 131 66 117 100 b 214 129 265 217 265 291 z m 104 173 b 102 215 117 325 166 325 b 179 325 187 312 187 290 b 187 230 155 178 105 155 b 105 161 104 167 104 173 z"},"b":{"x_min":0,"x_max":378,"ha":378,"o":"m 144 255 b 144 184 179 114 236 73 b 224 52 207 38 182 38 b 134 38 111 87 111 153 l 111 621 b 111 645 90 665 57 665 b 43 665 25 661 25 654 b 25 647 35 645 35 616 l 35 139 b 35 41 84 -28 176 -28 b 234 -28 273 1 298 44 b 314 39 331 37 349 37 b 417 37 458 82 470 136 b 483 192 417 188 413 165 b 407 126 384 93 341 93 b 334 93 327 93 320 95 b 330 130 335 170 335 209 b 335 321 282 372 229 372 b 182 372 144 336 144 255 z m 206 259 b 206 287 211 306 224 306 b 242 306 259 268 259 201 b 259 182 258 158 254 135 b 225 166 206 211 206 259 z"},"%":{"x_min":0,"x_max":566,"ha":566,"o":"m 139 347 b 201 347 252 396 252 523 b 252 650 201 700 139 700 b 77 700 25 650 25 523 b 25 396 77 347 139 347 z m 139 646 b 172 646 186 609 186 523 b 186 437 172 401 139 401 b 106 401 91 437 91 523 b 91 609 106 646 139 646 z m 73 27 b 70 23 69 16 69 13 b 69 -8 93 -19 108 -19 b 113 -19 118 -17 121 -12 l 495 654 b 498 659 497 662 497 665 b 497 686 467 701 451 701 b 446 701 440 700 440 694 b 440 692 441 686 440 684 z m 428 -20 b 490 -20 541 29 541 156 b 541 283 490 333 428 333 b 366 333 314 283 314 156 b 314 29 366 -20 428 -20 z m 428 279 b 461 279 475 242 475 156 b 475 70 461 34 428 34 b 395 34 380 70 380 156 b 380 242 395 279 428 279 z"},"m":{"x_min":0,"x_max":543,"ha":543,"o":"m 632 128 b 633 132 633 134 633 135 b 633 154 614 176 598 176 b 588 176 578 167 574 146 b 565 102 547 38 507 38 b 481 38 481 75 481 84 l 481 291 b 481 337 466 392 401 392 b 356 392 321 351 296 298 b 294 343 277 392 217 392 b 172 392 137 350 111 296 l 111 338 b 111 362 90 382 57 382 b 43 382 31 375 31 365 b 31 358 35 352 35 333 l 35 16 b 35 -21 63 -28 83 -28 b 112 -28 111 -4 111 15 l 111 161 b 117 240 174 326 201 326 b 218 326 220 300 220 269 l 220 16 b 220 -21 248 -28 268 -28 b 297 -28 296 -4 296 15 l 296 161 b 302 240 359 326 386 326 b 403 326 405 300 405 269 l 405 66 b 405 15 436 -28 489 -28 b 575 -28 614 62 632 128 z"},"#":{"x_min":0,"x_max":465,"ha":465,"o":"m 47 282 b 31 282 20 265 20 249 b 20 237 25 227 37 227 l 106 227 l 78 78 b 77 73 77 72 77 69 b 77 55 94 42 111 42 b 122 42 134 44 134 54 l 167 227 l 256 227 l 228 78 b 227 73 227 72 227 69 b 227 55 244 42 261 42 b 272 42 284 44 284 54 l 317 227 l 380 227 b 399 227 415 236 415 262 b 415 275 408 283 397 283 b 394 283 392 282 389 282 l 327 282 l 345 377 l 410 377 b 429 377 445 386 445 412 b 445 425 438 433 427 433 b 424 433 422 432 419 432 l 356 432 l 384 577 b 390 601 363 609 342 609 b 328 609 325 599 325 588 l 295 432 l 206 432 l 234 577 b 240 601 213 609 192 609 b 178 609 175 599 175 588 l 145 432 l 77 432 b 61 432 50 415 50 399 b 50 387 55 377 67 377 l 135 377 l 117 282 z m 195 377 l 285 377 l 267 282 l 177 282 z"},",":{"x_min":0,"x_max":270,"ha":270,"o":"m 143 73 b 117 73 94 52 94 25 b 94 3 110 -15 131 -20 b 117 -39 102 -56 95 -58 b 91 -60 88 -60 88 -65 b 88 -77 100 -96 117 -96 b 142 -96 192 -23 192 14 b 192 54 169 73 143 73 z"},"n":{"x_min":0,"x_max":361,"ha":361,"o":"m 35 16 b 35 -21 63 -28 83 -28 b 112 -28 111 -4 111 15 l 111 161 b 118 240 180 326 209 326 b 228 326 230 300 230 269 l 230 66 b 230 15 261 -28 314 -28 b 400 -28 440 62 457 128 b 458 132 458 134 458 135 b 458 154 439 176 423 176 b 413 176 403 167 399 146 b 390 102 372 38 332 38 b 306 38 306 75 306 84 l 306 291 b 306 337 290 392 223 392 b 174 392 138 349 111 293 l 111 338 b 111 362 90 382 57 382 b 43 382 31 375 31 365 b 31 358 35 352 35 333 z"},"h":{"x_min":0,"x_max":368,"ha":368,"o":"m 35 16 b 35 -21 63 -28 83 -28 b 112 -28 111 -4 111 15 l 111 161 b 118 240 180 326 209 326 b 228 326 230 300 230 269 l 230 66 b 230 15 261 -28 314 -28 b 400 -28 439 62 457 128 b 465 160 411 207 399 146 b 390 102 372 38 332 38 b 306 38 306 75 306 84 l 306 291 b 306 337 290 392 223 392 b 174 392 138 349 111 293 l 111 621 b 111 645 90 665 57 665 b 43 665 25 661 25 654 b 25 647 35 645 35 616 z"},"z":{"x_min":0,"x_max":360,"ha":360,"o":"m 103 -297 b 103 -361 143 -412 199 -412 b 290 -412 317 -290 317 -185 b 317 -148 315 -116 311 -89 b 363 -44 416 15 449 125 b 450 129 450 134 450 135 b 450 154 431 176 415 176 b 405 176 397 167 391 146 b 370 72 334 20 295 -21 b 278 23 251 50 213 71 b 284 103 341 170 341 254 b 341 331 292 392 208 392 b 92 392 59 290 34 159 b 29 134 76 76 90 133 b 127 288 158 326 208 326 b 247 326 265 296 265 262 b 265 162 190 100 120 80 l 134 25 b 195 25 222 -25 233 -81 b 165 -142 103 -193 103 -297 z m 241 -199 b 241 -253 237 -349 199 -349 b 183 -349 173 -325 173 -294 b 173 -226 201 -186 240 -150 b 241 -168 241 -185 241 -199 z"},"B":{"x_min":0,"x_max":581,"ha":581,"o":"m 200 161 b 200 38 239 -45 370 -45 b 469 -45 545 28 545 128 b 545 214 498 264 440 281 b 513 320 569 387 569 496 b 569 638 470 723 319 723 b 141 723 18 601 18 414 b 18 297 75 237 91 222 b 120 200 147 266 147 284 b 147 294 143 301 132 298 b 130 301 94 332 94 420 b 94 542 159 648 320 648 b 443 648 492 570 492 494 b 492 349 377 318 330 318 b 300 318 317 243 335 243 b 398 243 467 216 467 126 b 467 68 425 24 369 24 b 310 24 278 62 278 158 l 278 529 b 278 553 255 573 222 573 b 208 573 196 566 196 556 b 196 549 200 543 200 524 z"},"K":{"x_min":0,"x_max":599,"ha":599,"o":"m 339 658 b 339 682 320 700 299 700 b 181 700 18 630 18 418 b 18 317 67 243 102 219 b 131 198 174 237 174 279 b 174 286 171 291 166 291 b 161 291 156 287 150 287 b 137 287 97 338 97 418 b 97 544 171 611 261 622 l 261 1 b 261 -14 288 -28 311 -28 b 326 -28 339 -22 339 -5 l 339 221 b 496 177 449 -15 561 -155 b 565 -159 569 -161 574 -161 b 590 -161 642 -128 642 -109 b 642 -101 628 -101 623 -95 b 532 7 551 190 410 265 b 587 343 512 583 595 709 b 601 712 603 716 603 720 b 603 736 569 750 544 750 b 532 750 525 741 523 737 b 425 570 533 346 339 306 z"},"R":{"x_min":0,"x_max":567,"ha":567,"o":"m 200 1 b 200 -14 227 -28 250 -28 b 265 -28 278 -22 278 -5 l 278 134 b 414 97 365 -49 463 -160 b 467 -164 471 -166 476 -166 b 492 -166 544 -133 544 -114 b 544 -106 530 -106 525 -100 b 457 -27 469 108 370 165 b 475 214 560 320 560 456 b 560 598 462 700 316 700 b 138 700 18 576 18 391 b 18 274 75 214 91 199 b 120 177 147 243 147 261 b 147 271 143 278 132 275 b 130 278 94 309 94 397 b 94 514 163 625 317 625 b 434 625 483 530 483 454 b 483 285 354 216 278 202 l 278 529 b 278 553 255 573 222 573 b 208 573 196 566 196 556 b 196 549 200 543 200 524 z"},"T":{"x_min":0,"x_max":513,"ha":513,"o":"m 412 56 l 412 623 b 459 622 528 620 542 620 b 568 620 581 649 581 673 b 581 688 575 706 569 706 b 566 706 562 698 545 698 b 526 698 425 700 377 700 b 169 700 18 597 18 405 b 18 299 77 222 106 201 b 111 197 116 196 121 196 b 144 196 169 229 169 255 b 169 265 165 272 154 269 b 128 295 97 336 97 405 b 97 560 210 611 334 621 l 334 69 b 334 18 326 -4 308 -4 b 298 -4 291 4 291 -9 b 291 -28 331 -67 356 -67 b 389 -67 412 -32 412 56 z"},"P":{"x_min":0,"x_max":567,"ha":567,"o":"m 200 1 b 200 -14 227 -28 250 -28 b 265 -28 278 -22 278 -5 l 278 127 b 425 155 560 282 560 456 b 560 598 465 700 319 700 b 141 700 18 578 18 391 b 18 274 75 214 91 199 b 120 177 147 243 147 261 b 147 271 143 278 132 275 b 130 278 94 309 94 397 b 94 519 159 625 320 625 b 437 625 483 530 483 454 b 483 286 346 210 278 202 l 278 529 b 278 553 255 573 222 573 b 208 573 196 566 196 556 b 196 549 200 543 200 524 z"},"|":{"x_min":0,"x_max":250,"ha":250,"o":"m 87 -221 b 87 -241 113 -250 132 -250 b 146 -250 162 -245 162 -232 l 162 725 b 162 744 140 750 121 750 b 102 750 82 747 82 739 b 82 734 87 729 87 726 z"},"t":{"x_min":0,"x_max":181,"ha":181,"o":"m -55 470 b -84 470 -66 403 -34 403 b -34 403 -9 401 35 401 l 35 83 b 35 4 73 -28 127 -28 b 213 -28 253 62 270 128 b 271 132 271 134 271 135 b 271 154 252 176 236 176 b 226 176 216 167 212 146 b 203 102 185 38 145 38 b 124 38 111 52 111 84 l 111 401 b 164 401 223 401 303 403 b 329 404 338 500 310 470 b 242 467 172 466 111 466 l 111 641 b 111 665 90 685 57 685 b 43 685 25 681 25 674 b 25 667 35 665 35 636 l 35 467 b -19 468 -55 470 -55 470 z"},"M":{"x_min":0,"x_max":548,"ha":548,"o":"m 531 19 b 507 31 486 54 486 96 l 486 541 b 486 658 421 700 359 700 b 340 700 303 696 278 659 b 247 696 203 700 186 700 b 126 700 62 658 62 541 l 62 123 b 62 57 48 33 34 28 b 20 23 7 29 7 20 b 7 2 17 -28 54 -28 b 110 -28 140 20 140 108 l 140 551 b 140 627 175 627 188 627 b 203 627 235 627 235 551 l 235 -9 b 235 -28 247 -28 260 -28 b 285 -28 318 -14 318 -4 b 318 -2 315 1 313 1 l 313 541 b 313 627 346 627 361 627 b 374 627 408 627 408 551 l 408 88 b 408 9 441 -27 473 -28 b 507 -29 547 9 531 19 z"},"g":{"x_min":0,"x_max":352,"ha":352,"o":"m 95 -297 b 95 -361 135 -412 191 -412 b 242 -412 295 -375 295 -270 l 295 -97 b 349 -50 407 9 441 125 b 442 129 442 134 442 135 b 442 154 423 176 407 176 b 397 176 389 167 383 146 b 363 77 331 27 295 -13 l 295 259 b 295 283 274 303 241 303 b 227 303 215 296 215 286 b 215 279 219 273 219 254 l 219 141 b 212 101 192 48 152 48 b 117 48 95 78 95 130 b 95 274 184 339 260 339 b 270 339 280 337 289 337 b 299 337 302 343 302 360 b 302 386 283 402 256 402 b 134 402 18 300 18 133 b 18 48 59 -18 137 -18 b 172 -18 199 -2 219 18 l 219 -87 b 153 -145 95 -196 95 -297 z m 191 -349 b 175 -349 165 -325 165 -294 b 165 -234 187 -196 219 -163 l 219 -270 b 219 -289 223 -349 191 -349 z"},"j":{"x_min":0,"x_max":168,"ha":168,"o":"m 199 146 b 179 77 147 27 111 -13 l 111 338 b 111 362 90 382 57 382 b 43 382 31 375 31 365 b 31 358 35 352 35 333 l 35 -87 b -31 -145 -89 -196 -89 -297 b -89 -361 -49 -412 7 -412 b 58 -412 111 -375 111 -270 l 111 -97 b 165 -50 223 9 257 125 b 258 129 258 134 258 135 b 258 154 239 176 223 176 b 213 176 205 167 199 146 z m 12 542 b 12 509 39 481 73 481 b 106 481 134 509 134 542 b 134 577 106 603 73 603 b 39 603 12 577 12 542 z m 7 -349 b -9 -349 -19 -325 -19 -294 b -19 -234 3 -196 35 -163 l 35 -270 b 35 -289 39 -349 7 -349 z"},"i":{"x_min":0,"x_max":173,"ha":173,"o":"m 88 481 b 123 481 149 509 149 542 b 149 577 123 603 88 603 b 55 603 28 577 28 542 b 28 509 55 481 88 481 z m 111 338 b 111 362 90 382 57 382 b 43 382 31 375 31 365 b 31 358 35 352 35 333 l 35 66 b 35 15 66 -28 119 -28 b 205 -28 244 62 262 128 b 270 160 216 207 204 146 b 195 102 177 38 137 38 b 111 38 111 75 111 84 z"},"y":{"x_min":0,"x_max":359,"ha":359,"o":"m 390 146 b 370 77 338 27 302 -13 l 302 338 b 302 362 281 382 248 382 b 234 382 222 375 222 365 b 222 358 226 352 226 333 l 226 172 b 214 102 184 37 144 37 b 115 37 98 66 98 120 b 98 204 109 248 127 322 b 131 337 160 377 111 377 b 58 377 65 357 58 340 b 58 340 22 221 22 115 b 22 28 61 -29 128 -29 b 171 -29 202 0 226 40 l 226 -87 b 160 -145 102 -196 102 -297 b 102 -361 142 -412 198 -412 b 249 -412 302 -375 302 -270 l 302 -97 b 356 -50 414 9 448 125 b 449 129 449 134 449 135 b 449 154 430 176 414 176 b 404 176 396 167 390 146 z m 198 -349 b 182 -349 172 -325 172 -294 b 172 -234 194 -196 226 -163 l 226 -270 b 226 -289 230 -349 198 -349 z"},"@":{"x_min":0,"x_max":641,"ha":641,"o":"m 315 109 b 220 109 151 175 151 278 b 151 400 231 509 351 509 b 437 509 486 461 486 366 b 486 291 467 224 427 224 b 418 224 404 232 404 266 l 404 359 b 404 370 388 374 372 374 b 356 374 340 370 340 364 b 340 363 341 361 344 359 l 344 252 b 334 238 322 227 305 227 b 288 227 272 245 272 279 b 272 354 304 404 357 404 b 370 404 381 401 386 401 b 400 401 413 429 413 447 b 413 454 410 460 404 460 b 402 460 400 459 397 458 b 394 458 379 461 360 461 b 274 461 210 382 210 275 b 210 210 239 169 295 169 b 321 169 341 185 357 203 b 371 182 395 169 420 169 b 509 169 549 266 549 367 b 549 487 473 569 352 569 b 189 569 88 429 88 280 b 88 131 193 49 288 49 b 346 49 352 143 315 109 z"},".":{"x_min":0,"x_max":270,"ha":270,"o":"m 142 73 b 116 73 94 52 94 25 b 94 0 116 -22 142 -22 b 169 -22 191 0 191 25 b 191 52 169 73 142 73 z"},"p":{"x_min":0,"x_max":361,"ha":361,"o":"m 159 -38 b 194 -38 233 -21 260 8 b 393 8 455 89 455 135 b 455 149 436 173 419 173 b 410 173 405 165 396 146 b 373 99 358 73 292 70 b 307 106 318 160 318 216 b 318 315 280 392 202 392 b 160 392 132 369 111 339 b 110 362 89 382 57 382 b 43 382 25 378 25 371 b 25 364 35 362 35 333 l 35 -365 b 35 -380 38 -392 58 -392 b 78 -392 111 -385 111 -348 l 111 -23 b 119 -32 135 -38 159 -38 z m 177 325 b 211 325 240 292 240 200 b 240 163 229 95 205 60 b 159 56 125 46 111 25 l 111 241 b 122 290 148 325 177 325 z"},"X":{"x_min":0,"x_max":393,"ha":393,"o":"m 374 26 b 322 102 278 184 241 263 b 342 491 374 665 374 673 b 374 689 346 700 324 700 b 319 700 300 700 300 692 b 300 691 300 690 301 689 b 277 575 240 460 199 360 b 129 533 98 671 98 674 b 98 685 105 688 105 691 b 105 697 93 700 84 700 b 61 700 21 684 21 662 b 21 648 62 470 156 259 b 92 120 30 25 9 25 b 2 25 0 23 0 20 b 0 9 29 -28 64 -28 b 85 -28 93 -19 101 -6 b 138 53 170 112 198 169 b 229 108 264 45 303 -16 b 308 -24 314 -28 324 -28 b 343 -28 383 5 383 16 b 383 22 380 23 374 26 z"},"*":{"x_min":0,"x_max":330,"ha":330,"o":"m 76 633 b 73 635 70 636 68 636 b 54 636 34 605 34 596 b 34 588 39 589 52 580 l 119 532 l 44 477 b 40 474 38 469 38 464 b 38 448 53 426 65 426 b 66 426 68 427 70 428 l 137 476 l 137 405 b 137 396 146 392 157 392 b 173 392 193 400 193 412 l 193 479 l 262 430 b 264 428 266 428 268 428 b 281 428 296 450 296 465 b 296 470 294 474 291 476 l 214 532 l 289 586 b 293 588 294 591 294 595 b 294 604 278 636 268 636 b 262 636 255 631 247 625 l 193 585 l 193 659 b 193 676 177 679 159 679 b 139 679 134 673 137 654 l 137 588 z"},"Y":{"x_min":0,"x_max":621,"ha":621,"o":"m 559 656 b 559 680 536 700 503 700 b 489 700 477 693 477 683 b 477 676 481 670 481 651 l 481 271 b 481 186 378 51 348 51 b 344 51 339 52 339 65 l 339 658 b 339 682 320 700 299 700 b 181 700 18 630 18 418 b 18 317 67 243 102 219 b 131 198 174 237 174 279 b 174 286 171 291 166 291 b 161 291 156 287 150 287 b 137 287 97 338 97 418 b 97 544 171 611 261 622 l 261 59 b 261 -7 301 -28 329 -28 b 386 -28 440 27 481 96 l 481 -42 l 481 -53 b 389 -80 299 -135 299 -236 b 299 -303 343 -354 411 -354 b 527 -354 552 -226 558 -111 b 571 -110 584 -109 599 -109 b 634 -108 659 -27 612 -30 b 596 -31 578 -32 559 -35 l 559 -5 z m 413 -277 b 393 -277 377 -264 377 -234 b 377 -184 413 -147 479 -127 b 474 -206 458 -277 413 -277 z"},"c":{"x_min":0,"x_max":297,"ha":297,"o":"m 195 -28 b 342 -28 386 93 393 154 b 397 189 341 209 332 164 b 320 103 284 38 206 38 b 147 38 104 82 104 161 b 104 251 139 325 176 325 b 210 325 212 288 217 271 b 211 236 280 256 280 294 b 280 329 254 392 185 392 b 90 392 22 276 22 161 b 22 38 106 -28 195 -28 z"},"!":{"x_min":0,"x_max":320,"ha":320,"o":"m 160 73 b 134 73 112 52 112 25 b 112 0 134 -22 160 -22 b 187 -22 209 0 209 25 b 209 52 187 73 160 73 z m 199 660 b 199 691 170 700 143 700 b 122 700 113 695 113 688 b 113 680 122 672 122 653 l 122 160 b 122 133 147 114 168 114 b 185 114 199 125 199 151 z"},"/":{"x_min":0,"x_max":310,"ha":310,"o":"m 10 25 b 9 22 8 19 8 16 b 8 -3 37 -18 54 -18 b 62 -18 69 -16 72 -9 l 305 652 b 306 654 306 658 306 659 b 306 683 263 695 248 695 b 241 695 238 692 238 688 b 238 684 240 679 239 676 z"},"[":{"x_min":0,"x_max":270,"ha":270,"o":"m 122 697 b 122 697 126 697 135 697 b 147 697 168 697 195 695 b 197 690 200 688 203 688 b 212 688 223 712 223 733 b 223 751 216 762 195 762 l 69 762 b 56 762 48 749 48 738 l 48 -86 b 48 -108 55 -112 74 -112 l 197 -112 b 217 -112 227 -91 227 -70 b 227 -54 222 -41 213 -41 b 212 -41 210 -41 208 -42 b 189 -44 161 -44 143 -44 b 130 -44 122 -44 122 -44 z"},"6":{"x_min":0,"x_max":399,"ha":399,"o":"m 212 627 b 246 627 271 594 271 562 b 271 556 278 554 287 554 b 309 554 343 570 343 586 b 343 627 286 700 212 700 b 38 700 38 416 38 323 b 38 234 44 -28 210 -28 b 236 -28 367 -14 367 247 b 367 368 323 487 216 487 b 190 487 157 481 120 440 b 132 579 168 627 212 627 z m 210 415 b 265 415 291 336 291 247 b 291 90 244 45 210 45 b 168 45 122 95 117 282 b 128 372 163 415 210 415 z"},"r":{"x_min":0,"x_max":307,"ha":307,"o":"m 253 -28 b 339 -28 378 62 396 128 b 396 130 397 132 397 135 b 397 154 378 176 362 176 b 352 176 342 167 338 146 b 329 102 312 38 266 38 b 239 38 226 64 226 92 b 226 192 271 310 271 322 b 275 345 235 378 223 378 l 171 378 b 161 378 151 378 118 382 b 107 423 79 435 55 435 b 29 435 5 417 5 389 b 5 360 23 339 48 325 b 47 274 43 191 32 151 b 23 117 75 81 88 123 b 106 181 112 268 113 307 l 124 307 l 200 307 b 168 221 150 150 150 86 b 150 -2 206 -28 253 -28 z"},"2":{"x_min":0,"x_max":398,"ha":398,"o":"m 177 65 b 249 152 366 320 366 492 b 366 593 316 700 202 700 b 117 700 28 636 28 495 b 28 422 62 330 112 330 b 138 330 159 357 161 374 b 162 380 160 383 158 383 b 155 383 153 378 148 378 b 133 378 105 429 105 495 b 105 591 154 626 200 626 b 230 626 288 602 288 495 b 288 276 71 58 69 56 b 61 49 57 38 57 27 b 57 5 75 -10 94 -10 l 319 -10 b 346 -10 358 19 358 50 b 358 63 356 79 347 79 b 338 79 338 65 322 65 z"},"{":{"x_min":0,"x_max":295,"ha":295,"o":"m 228 -147 b 253 -147 263 -126 263 -105 b 263 -85 254 -66 240 -69 b 185 -69 150 -44 150 6 b 150 85 193 135 193 200 b 193 258 159 300 122 312 b 158 331 193 368 193 423 b 193 492 149 551 149 619 b 149 680 187 706 238 706 b 250 696 261 714 262 735 b 263 757 255 782 226 782 b 165 782 72 747 72 620 b 72 548 117 488 117 423 b 117 323 28 371 28 311 b 28 253 117 299 117 200 b 117 144 73 75 73 6 b 73 -114 171 -147 228 -147 z"},"9":{"x_min":0,"x_max":399,"ha":399,"o":"m 187 45 b 153 45 128 78 128 110 b 128 116 121 118 112 118 b 90 118 56 102 56 86 b 56 45 113 -28 187 -28 b 361 -28 361 256 361 349 b 361 438 355 700 189 700 b 163 700 32 686 32 425 b 32 304 76 185 183 185 b 208 185 242 191 278 232 b 266 92 230 45 187 45 z m 189 257 b 134 257 108 336 108 425 b 108 582 155 627 189 627 b 231 627 276 576 282 389 b 271 300 235 257 189 257 z"}," ":{"x_min":0,"x_max":220,"ha":220,"o":""},"I":{"x_min":0,"x_max":396,"ha":396,"o":"m 339 658 b 339 682 320 700 299 700 b 181 700 18 630 18 418 b 18 317 67 243 102 219 b 131 198 168 237 168 279 b 168 286 166 294 161 294 b 156 294 155 287 150 287 b 137 287 97 338 97 418 b 97 544 171 611 261 622 l 261 1 b 261 -14 288 -28 311 -28 b 326 -28 339 -22 339 -5 z"},"H":{"x_min":0,"x_max":678,"ha":678,"o":"m 387 658 b 387 682 368 700 347 700 b 195 700 18 615 18 403 b 18 293 67 225 102 200 b 131 179 168 215 168 257 b 168 264 167 273 162 273 b 157 273 156 268 150 268 b 137 268 97 322 97 406 b 97 540 186 625 309 625 l 309 302 l 217 302 b 207 302 202 293 202 282 b 202 261 217 232 238 232 l 309 232 l 309 1 b 309 -14 336 -28 359 -28 b 374 -28 387 -22 387 -5 l 387 232 l 543 232 l 543 1 b 543 -14 570 -28 593 -28 b 608 -28 621 -22 621 -5 l 621 622 b 621 706 648 682 648 697 b 648 711 624 750 595 750 b 567 750 543 714 543 643 l 543 302 l 387 302 z"},"4":{"x_min":0,"x_max":387,"ha":387,"o":"m 344 188 b 372 188 383 216 383 247 b 383 260 381 276 372 276 b 363 276 363 262 347 262 l 321 262 l 321 656 b 321 680 300 700 267 700 b 253 700 235 696 235 689 b 235 682 245 680 245 651 l 245 263 l 225 263 b 187 263 141 262 105 261 b 147 367 162 522 162 605 b 162 654 129 664 107 664 b 90 664 80 660 80 652 b 80 650 85 630 85 615 b 85 550 81 394 27 256 b 20 249 12 244 12 231 b 12 215 34 187 57 187 b 91 187 163 190 209 190 l 245 190 l 245 11 b 245 -4 270 -18 293 -18 b 308 -18 321 -12 321 5 l 321 188 z"},"~":{"x_min":0,"x_max":400,"ha":400,"o":"m 109 271 b 112 291 122 319 145 319 b 165 319 201 249 260 249 b 300 249 355 287 355 365 b 355 375 333 386 314 386 b 300 386 288 380 288 362 b 288 339 275 319 259 319 b 222 319 194 389 136 389 b 82 389 45 326 45 279 b 45 266 68 255 88 255 b 101 255 109 260 109 271 z"},"D":{"x_min":0,"x_max":609,"ha":609,"o":"m 275 516 b 275 540 252 560 219 560 b 205 560 193 553 193 543 b 193 536 197 530 197 511 l 197 128 b 197 22 231 -38 325 -38 b 435 -38 576 117 576 401 b 576 562 495 716 309 716 b 134 716 18 589 18 407 b 18 266 98 192 101 190 b 106 186 111 185 116 185 b 139 185 164 218 164 244 b 164 254 160 261 149 258 b 145 261 96 317 96 413 b 96 519 140 639 306 639 b 439 639 496 528 496 393 b 496 193 407 39 331 39 b 291 39 275 68 275 123 z"},"^":{"x_min":0,"x_max":400,"ha":400,"o":"m 237 672 b 229 691 231 700 203 700 b 186 700 169 691 157 673 l 67 517 b 66 516 65 515 65 513 b 65 499 90 482 108 482 b 123 482 127 490 132 499 l 198 616 l 267 492 b 270 487 278 482 289 482 b 316 482 334 494 334 505 b 334 510 330 513 326 520 z"},"0":{"x_min":0,"x_max":435,"ha":435,"o":"m 218 -28 b 301 -28 400 34 400 336 b 400 493 381 700 218 700 b 35 700 35 427 35 336 b 35 95 96 -28 218 -28 z m 218 626 b 243 626 322 624 322 336 b 322 156 284 46 218 46 b 125 46 113 228 113 336 b 113 528 147 626 218 626 z"},"F":{"x_min":0,"x_max":583,"ha":583,"o":"m 412 56 l 412 226 l 528 226 b 551 226 568 319 537 296 l 412 296 l 412 623 b 474 622 587 620 605 620 b 636 620 651 649 651 673 b 651 688 644 706 637 706 b 634 706 629 698 609 698 b 588 698 437 700 382 700 b 142 700 18 597 18 405 b 18 299 77 222 106 201 b 111 197 116 196 121 196 b 144 196 169 229 169 255 b 169 265 165 272 154 269 b 128 295 97 336 97 405 b 97 562 194 612 334 621 l 334 296 l 261 296 b 251 296 246 287 246 276 b 246 255 261 226 282 226 l 334 226 l 334 69 b 334 18 326 -4 308 -4 b 298 -4 291 4 291 -9 b 291 -28 331 -67 356 -67 b 389 -67 412 -32 412 56 z"},"`":{"x_min":0,"x_max":400,"ha":400,"o":"m 217 452 b 220 447 228 442 239 442 b 266 442 284 454 284 465 b 284 470 280 475 276 480 l 185 585 b 178 595 170 604 156 604 b 143 604 115 591 115 572 b 115 567 118 561 123 555 z"},"k":{"x_min":0,"x_max":350,"ha":350,"o":"m 35 16 b 35 -21 63 -28 83 -28 b 112 -28 111 -4 111 15 l 111 187 b 142 293 187 325 211 325 b 230 325 243 308 243 283 b 243 191 150 159 150 128 b 150 62 202 -28 281 -28 b 372 -28 421 73 439 127 b 447 159 393 206 381 145 b 372 101 338 38 292 38 b 253 38 231 78 221 121 b 261 150 317 207 317 284 b 317 340 290 392 228 392 b 183 392 143 353 111 309 l 111 621 b 111 645 90 665 57 665 b 43 665 25 661 25 654 b 25 647 35 645 35 616 z"},"u":{"x_min":0,"x_max":364,"ha":364,"o":"m 310 -28 b 396 -28 435 62 453 128 b 454 132 454 134 454 135 b 454 154 435 176 419 176 b 409 176 399 167 395 146 b 386 102 368 38 328 38 b 302 38 302 75 302 84 l 302 338 b 302 362 281 382 248 382 b 234 382 216 378 216 371 b 216 364 226 362 226 333 l 226 172 b 214 102 184 37 144 37 b 115 37 98 66 98 120 b 98 204 109 248 127 322 b 131 337 160 377 111 377 b 58 377 65 357 58 340 b 58 340 22 221 22 115 b 22 28 61 -29 128 -29 b 172 -29 204 1 228 43 b 235 3 265 -28 310 -28 z"},"]":{"x_min":0,"x_max":270,"ha":270,"o":"m 148 -47 b 148 -47 144 -47 135 -47 b 123 -47 102 -47 75 -45 b 73 -40 70 -38 67 -38 b 58 -38 47 -62 47 -83 b 47 -101 54 -112 75 -112 l 201 -112 b 214 -112 222 -99 222 -88 l 222 736 b 222 758 215 762 196 762 l 73 762 b 53 762 43 741 43 720 b 43 704 48 691 57 691 b 58 691 60 691 62 692 b 81 694 109 694 127 694 b 140 694 148 694 148 694 z"},"U":{"x_min":0,"x_max":616,"ha":616,"o":"m 481 94 b 484 13 485 -28 520 -28 b 542 -28 571 -17 571 -4 b 571 -2 570 0 568 3 b 564 35 559 91 559 222 l 559 656 b 559 680 536 700 503 700 b 489 700 477 693 477 683 b 477 676 481 670 481 651 l 481 271 b 481 186 378 51 348 51 b 344 51 339 52 339 65 l 339 658 b 339 682 320 700 299 700 b 181 700 18 630 18 418 b 18 317 67 243 102 219 b 131 198 174 237 174 279 b 174 286 171 291 166 291 b 161 291 156 287 150 287 b 137 287 97 338 97 418 b 97 544 171 611 261 622 l 261 59 b 261 -7 301 -28 329 -28 b 386 -28 440 27 481 96 z"},"o":{"x_min":0,"x_max":366,"ha":366,"o":"m 401 165 b 395 126 372 93 329 93 b 322 93 316 93 309 95 b 319 129 323 166 323 203 b 323 300 285 371 238 371 b 184 371 157 317 157 254 b 157 182 182 116 229 76 b 216 53 198 38 170 38 b 131 38 98 80 98 164 b 98 263 128 300 144 324 b 170 341 150 394 124 394 b 102 394 22 305 22 158 b 22 58 67 -28 168 -28 b 225 -28 263 1 288 44 b 303 39 319 37 337 37 b 405 37 446 82 458 136 b 471 192 405 188 401 165 z m 210 258 b 210 289 216 305 227 305 b 248 305 251 255 251 187 b 251 172 250 157 248 141 b 225 171 210 213 210 258 z"},"N":{"x_min":0,"x_max":616,"ha":616,"o":"m 339 658 b 339 682 320 700 299 700 b 181 700 18 630 18 418 b 18 301 86 213 120 213 b 146 213 174 245 174 279 b 174 286 171 291 166 291 b 161 291 156 287 150 287 b 137 287 97 338 97 418 b 97 544 171 611 261 622 l 261 1 b 261 -14 288 -28 311 -28 b 326 -28 339 -22 339 -5 l 339 381 b 339 466 442 621 472 621 b 476 621 481 620 481 607 l 481 13 b 482 -71 527 -94 556 -94 b 587 -94 607 -75 607 -60 b 607 -39 559 -45 559 30 l 559 613 b 559 679 519 700 491 700 b 433 700 379 645 339 576 z"},"+":{"x_min":0,"x_max":400,"ha":400,"o":"m 67 350 b 48 350 39 326 39 308 b 39 293 45 280 55 280 l 165 280 l 165 168 b 166 146 235 155 235 175 l 235 280 l 331 280 b 349 280 362 313 362 334 b 362 345 359 355 352 355 b 349 355 346 350 339 350 l 235 350 l 235 456 b 235 470 205 473 187 473 b 169 473 161 470 161 466 b 161 462 165 461 165 454 l 165 350 z"},"G":{"x_min":0,"x_max":513,"ha":513,"o":"m 383 58 b 383 34 385 1 385 -42 l 385 -52 b 292 -80 201 -134 201 -236 b 201 -303 245 -354 313 -354 b 430 -354 454 -223 459 -111 b 473 -110 486 -109 501 -109 b 536 -108 561 -27 514 -30 b 498 -31 480 -32 461 -35 b 461 26 460 75 460 122 b 460 172 461 219 466 273 b 466 295 432 311 414 311 b 397 311 382 310 382 291 b 382 284 384 268 384 258 b 384 176 332 38 230 38 b 166 38 117 128 117 272 b 117 447 222 641 347 641 b 393 641 408 608 408 585 b 408 521 335 462 284 462 b 255 462 253 472 246 472 b 239 472 235 450 235 436 b 235 403 255 388 279 388 b 366 388 487 481 487 590 b 487 667 432 714 360 714 b 161 714 34 470 34 271 b 34 84 104 -40 228 -40 b 289 -40 341 -4 383 58 z m 315 -277 b 295 -277 279 -264 279 -234 b 279 -184 316 -147 382 -126 b 377 -206 360 -277 315 -277 z"},"q":{"x_min":0,"x_max":365,"ha":365,"o":"m 137 -28 b 173 -28 199 -12 219 9 l 219 -280 b 219 -362 251 -412 319 -412 b 372 -412 418 -358 418 -279 b 418 -207 381 -151 321 -85 b 371 -40 423 19 454 125 b 455 129 455 134 455 135 b 455 154 436 176 420 176 b 410 176 402 167 396 146 b 373 69 336 15 295 -27 l 295 249 b 295 273 274 293 241 293 b 227 293 215 286 215 276 b 215 269 219 263 219 244 l 219 131 b 212 91 192 38 152 38 b 117 38 95 68 95 120 b 95 264 184 329 260 329 b 270 329 280 327 289 327 b 299 327 302 333 302 350 b 302 376 283 392 256 392 b 134 392 18 290 18 123 b 18 38 59 -28 137 -28 z m 347 -290 b 347 -329 334 -346 321 -346 b 311 -346 295 -336 295 -289 l 295 -141 b 337 -196 347 -241 347 -290 z"},"d":{"x_min":0,"x_max":366,"ha":366,"o":"m 147 -28 b 185 -28 214 -11 236 11 b 251 -12 278 -28 312 -28 b 398 -28 438 62 455 128 b 456 132 456 134 456 135 b 456 154 437 176 421 176 b 411 176 401 167 397 146 b 388 102 370 38 330 38 b 306 38 296 62 296 84 l 296 621 b 296 645 275 665 242 665 b 228 665 210 661 210 654 b 210 647 220 645 220 616 l 220 390 b 111 375 18 286 18 133 b 18 28 69 -28 147 -28 z m 162 38 b 127 38 95 68 95 140 b 95 265 155 312 220 324 l 220 77 b 207 55 188 38 162 38 z"},"1":{"x_min":0,"x_max":261,"ha":261,"o":"m 123 11 b 123 -4 148 -18 171 -18 b 186 -18 199 -12 199 5 l 199 661 b 199 681 180 700 160 700 b 148 700 137 694 130 684 b 130 684 42 558 19 550 b 13 548 8 547 8 540 b 8 522 26 494 50 494 b 62 494 83 508 123 563 z"},"5":{"x_min":0,"x_max":366,"ha":366,"o":"m 46 435 b 42 411 82 396 94 396 b 119 396 131 431 172 431 b 227 431 254 365 254 256 b 254 118 225 46 173 46 b 110 46 104 138 104 160 b 104 172 108 172 108 178 b 108 187 84 203 59 203 b 34 203 27 186 27 157 b 27 106 58 -28 172 -28 b 251 -28 332 49 332 256 b 332 459 244 503 188 503 b 162 503 141 494 128 484 l 139 610 l 270 610 b 297 610 308 639 308 670 b 308 679 306 695 298 695 b 290 695 289 685 273 685 b 273 685 243 684 187 684 b 161 684 112 684 86 684 b 82 684 76 682 75 674 z"}}}
